<?xml version="1.0" encoding="iso-8859-1"?>
<!-- Generator: Adobe Illustrator 19.0.0, SVG Export Plug-In . SVG Version: 6.00 Build 0)  -->
<svg version="1.1" id="Capa_1" xmlns="http://www.w3.org/2000/svg" xmlns:xlink="http://www.w3.org/1999/xlink" x="0px" y="0px"
	 viewBox="0 0 512 512" style="enable-background:new 0 0 512 512;" xml:space="preserve">
<circle style="fill:#6E64C3;" cx="256" cy="256" r="256"/>
<path style="fill:#5046AF;" d="M395.952,116.048c-9.548-9.548-22.737-15.453-37.306-15.453H153.353
	c-29.138,0-52.758,23.621-52.758,52.758v205.294c0,14.568,5.905,27.758,15.453,37.306l-0.011,0.011l114.805,114.805
	C239.12,511.577,247.511,512,256,512c141.385,0,256-114.615,256-256c0-8.481-0.423-16.865-1.229-25.134L395.952,116.048z"/>
<path style="fill:#FFE65A;" d="M358.647,411.405H153.353c-29.138,0-52.758-23.621-52.758-52.758V153.353
	c0-29.138,23.621-52.758,52.758-52.758h205.294c29.138,0,52.758,23.621,52.758,52.758v205.294
	C411.405,387.785,387.785,411.405,358.647,411.405z"/>
<path style="fill:#FFFFFF;" d="M253.307,368.446c-7.576,0-15.396-3.658-17.692-4.822c-6.641-3.136-13.193-7.285-18.461-10.621
	c-3.785-2.398-7.36-4.661-9.185-5.363c-1.818-0.699-4.035-1.053-6.592-1.053c-6.382,0-13.538,2.174-18.417,3.999
	c-0.979,0.365-1.997,0.551-3.029,0.551c-4.761,0-8.633-3.876-8.633-8.64v-6.054c0-2.389-1.796-4.38-4.177-4.632
	c-7.555-0.801-15.254-3.04-22.882-6.657c-3.338-1.582-5.355-5.12-5.021-8.8c0.336-3.68,2.959-6.793,6.527-7.747
	c21.785-5.834,36.232-21.621,44.515-33.838c1.891-2.789,2.381-6.227,1.342-9.431c-1.039-3.204-3.451-5.699-6.618-6.846
	c-8.003-2.898-15.599-5.872-16.326-6.194c-5.211-2.304-7.577-8.42-5.272-13.634c1.654-3.742,5.367-6.16,9.46-6.16
	c1.442,0,2.847,0.297,4.173,0.882c0.32,0.13,4.397,1.747,9.683,3.709c0.327,0.121,0.67,0.183,1.018,0.183
	c0.604,0,1.184-0.182,1.68-0.527c0.79-0.549,1.26-1.45,1.26-2.41c0-21.537-0.157-27.262-0.224-28.723l-0.057-0.122v-0.769
	c0-34.301,28.761-61.169,65.477-61.169h0.281c36.716,0,65.477,26.868,65.477,61.169v0.247l-0.022,0.154
	c-0.033,0.464-0.259,4.597-0.259,29.214c0,0.961,0.472,1.862,1.26,2.41c0.495,0.346,1.077,0.527,1.68,0.527
	c0.349,0,0.692-0.062,1.02-0.183c5.285-1.962,9.362-3.579,9.755-3.74c1.252-0.554,2.656-0.852,4.099-0.852
	c4.093,0,7.807,2.418,9.46,6.16c2.305,5.213-0.061,11.329-5.272,13.635c-0.726,0.321-8.322,3.295-16.326,6.193
	c-3.166,1.146-5.578,3.642-6.618,6.847c-1.039,3.203-0.549,6.639,1.342,9.429c8.285,12.218,22.732,28.005,44.516,33.839
	c3.567,0.954,6.19,4.067,6.526,7.746c0.335,3.682-1.683,7.219-5.021,8.801c-7.629,3.617-15.327,5.856-22.882,6.657
	c-2.382,0.252-4.177,2.243-4.177,4.632v6.054c0,2.352-0.926,4.547-2.606,6.181c-1.63,1.585-3.77,2.459-6.027,2.459
	c-1.031,0-2.05-0.185-3.027-0.551c-4.88-1.824-12.035-3.999-18.418-3.999c-2.557,0-4.774,0.353-6.592,1.053
	c-1.824,0.702-5.399,2.967-9.184,5.362c-5.267,3.337-11.819,7.486-18.461,10.622c-2.293,1.163-10.115,4.821-17.709,4.821
	c-0.928,0-1.826-0.058-2.675-0.17C255.144,368.388,254.241,368.446,253.307,368.446z"/>
<path style="fill:#373C41;" d="M256.14,147c34.259,0,62.031,24.701,62.031,57.723c0,0-0.281,1.95-0.281,29.614
	c0,2.089,1.023,4.047,2.738,5.24c1.085,0.755,2.361,1.144,3.648,1.144c0.747,0,1.498-0.131,2.217-0.398
	c5.69-2.112,9.809-3.756,9.876-3.787c0.906-0.4,1.85-0.589,2.781-0.589c2.646,0,5.17,1.531,6.308,4.106
	c1.539,3.482-0.034,7.55-3.515,9.089c-0.56,0.248-7.976,3.162-16.104,6.105c-4.144,1.501-7.363,4.832-8.723,9.024
	c-1.359,4.193-0.705,8.779,1.768,12.427c9.182,13.541,24.161,29.258,46.478,35.233c2.189,0.586,3.779,2.475,3.985,4.731
	c0.205,2.257-1.017,4.404-3.065,5.374c-5.875,2.786-13.386,5.457-21.769,6.343c-4.124,0.436-7.261,3.912-7.261,8.059v6.055
	c0,2.972-2.439,5.194-5.188,5.194c-0.6,0-1.214-0.105-1.821-0.333c-5.294-1.979-12.79-4.216-19.624-4.216
	c-2.784,0-5.459,0.371-7.829,1.283c-4.828,1.857-16.298,10.625-27.925,16.105c-4.319,2.199-10.75,4.469-16.194,4.469
	c-0.926,0-1.823-0.065-2.675-0.208c-0.861,0.144-1.762,0.21-2.692,0.21c-5.493,0-11.928-2.308-16.177-4.471
	c-11.625-5.48-23.097-14.248-27.925-16.105c-2.37-0.912-5.044-1.283-7.829-1.283c-6.833,0-14.33,2.237-19.624,4.216
	c-0.608,0.226-1.222,0.333-1.822,0.333c-2.749,0-5.187-2.223-5.187-5.194v-6.055c0-4.146-3.137-7.623-7.261-8.059
	c-8.382-0.887-15.893-3.557-21.769-6.343c-2.047-0.971-3.27-3.118-3.065-5.374c0.206-2.257,1.796-4.145,3.985-4.731
	c22.316-5.976,37.295-21.692,46.478-35.233c2.473-3.648,3.127-8.233,1.768-12.427c-1.36-4.193-4.578-7.523-8.723-9.024
	c-8.128-2.943-15.544-5.856-16.104-6.105c-3.481-1.539-5.054-5.607-3.515-9.089c1.138-2.576,3.663-4.106,6.308-4.106
	c0.93,0,1.876,0.189,2.781,0.589c0.067,0.03,4.186,1.675,9.876,3.787c0.72,0.267,1.47,0.398,2.217,0.398
	c1.287,0,2.563-0.39,3.648-1.144c1.715-1.193,2.738-3.151,2.738-5.24c0-29.019-0.281-29.614-0.281-29.614
	c0-33.022,27.772-57.723,62.031-57.723c0.047,0,0.094,0.003,0.14,0.003C256.047,147.003,256.094,147,256.14,147 M256.14,140.108
	c-0.047,0-0.094,0-0.141,0.001c-0.046-0.001-0.094-0.001-0.14-0.001c-38.648,0-68.923,28.383-68.923,64.615v1.539l0.087,0.183
	c0.069,2.14,0.191,8.554,0.194,27.161c-4.963-1.85-8.481-3.25-8.923-3.426c-1.737-0.747-3.566-1.124-5.446-1.124
	c-5.457,0-10.407,3.224-12.612,8.212c-3.072,6.951,0.082,15.106,7.031,18.179c0.774,0.343,8.324,3.304,16.545,6.282
	c2.159,0.782,3.805,2.483,4.512,4.669c0.708,2.185,0.374,4.53-0.917,6.433c-7.955,11.733-21.795,26.885-42.555,32.443
	c-4.958,1.327-8.601,5.653-9.066,10.764c-0.466,5.115,2.338,10.029,6.976,12.228c7.98,3.784,16.054,6.129,23.996,6.969
	c0.623,0.066,1.094,0.584,1.094,1.205v6.055c0,6.665,5.419,12.086,12.079,12.086c1.444,0,2.869-0.259,4.235-0.769
	c4.613-1.724,11.344-3.78,17.211-3.78c2.132,0,3.934,0.278,5.354,0.823c1.506,0.58,5.101,2.856,8.578,5.058
	c5.336,3.379,11.971,7.582,18.79,10.806c2.529,1.278,10.921,5.172,19.208,5.172c0.924,0,1.824-0.049,2.693-0.147
	c0.862,0.096,1.757,0.145,2.674,0.145c8.306,0,16.696-3.892,19.225-5.17c6.818-3.224,13.454-7.426,18.789-10.805
	c3.477-2.202,7.072-4.478,8.578-5.058c1.421-0.546,3.223-0.823,5.354-0.823c5.867,0,12.598,2.056,17.211,3.78
	c1.366,0.511,2.79,0.769,4.234,0.769c6.661,0,12.08-5.421,12.08-12.086v-6.055c0-0.62,0.47-1.138,1.093-1.204
	c7.942-0.841,16.016-3.185,23.996-6.97c4.638-2.199,7.441-7.112,6.976-12.226c-0.466-5.111-4.109-9.437-9.066-10.765
	c-20.76-5.559-34.6-20.711-42.555-32.443c-1.291-1.904-1.625-4.249-0.917-6.434c0.708-2.185,2.353-3.886,4.512-4.668
	c8.222-2.977,15.773-5.94,16.547-6.283c6.947-3.073,10.102-11.228,7.03-18.179c-2.205-4.988-7.155-8.212-12.612-8.212
	c-1.883,0-3.715,0.378-5.448,1.125c-0.451,0.18-3.966,1.578-8.921,3.425c0.004-21.586,0.18-26.867,0.236-28.003l0.193-0.748
	l-0.15-0.132C325.063,168.49,294.789,140.108,256.14,140.108L256.14,140.108z"/>
<g>
</g>
<g>
</g>
<g>
</g>
<g>
</g>
<g>
</g>
<g>
</g>
<g>
</g>
<g>
</g>
<g>
</g>
<g>
</g>
<g>
</g>
<g>
</g>
<g>
</g>
<g>
</g>
<g>
</g>
</svg>
